<?xml version="1.0" standalone="no"?>
<!DOCTYPE svg PUBLIC "-//W3C//DTD SVG 1.1//EN" "http://www.w3.org/Graphics/SVG/1.1/DTD/svg11.dtd" >
<svg xmlns="http://www.w3.org/2000/svg">
<metadata>
This is a custom SVG webfont generated by Font Squirrel.
Copyright   : Copyright   2001 Jeremy Tankard All rights reserved
</metadata>
<defs>
<font id="webfontEG45ZkGH" horiz-adv-x="1073" >
<font-face units-per-em="2048" ascent="1638" descent="-410" />
<missing-glyph horiz-adv-x="503" />
<glyph unicode=" "  horiz-adv-x="503" />
<glyph unicode="&#x09;" horiz-adv-x="503" />
<glyph unicode="&#xa0;" horiz-adv-x="503" />
<glyph unicode="!" horiz-adv-x="565" d="M377 1231q0 -369 -9.5 -525.5t-39.5 -349.5h-86q-31 186 -40 343t-9 534v117h184v-119zM406 100.5q0 -53.5 -35 -89.5t-86.5 -36t-86 36t-34.5 89.5t34.5 90t86 36.5t86.5 -36.5t35 -90z" />
<glyph unicode="&#x22;" horiz-adv-x="741" d="M627 1450l-23 -449h-135l-27 449h185zM303 1450l-22 -449h-136l-26 449h184z" />
<glyph unicode="#" horiz-adv-x="1388" d="M1315 858h-291l-74 -344h258v-156h-290l-78 -358h-176l75 358h-231l-78 -358h-176l76 358h-252v156h284l74 344h-252v156h285l74 336h176l-72 -336h234l71 336h176l-71 -336h258v-156zM846 858h-232l-73 -344h231z" />
<glyph unicode="$" d="M928 371q0 -131 -89 -220.5t-237 -113.5v-201h-156v197q-168 12 -301 100l80 143q131 -92 277 -92q94 0 163.5 43t69.5 131q0 68 -51 124.5t-118.5 90t-153.5 87t-136 106.5q-94 102 -94 240q0 119 80 205.5t219 109.5v195h154v-191q135 -10 229 -61v-177 q-141 86 -289 87q-94 0 -152 -41t-58 -121q0 -68 58 -123t141 -99.5t165 -95.5t140.5 -134t58.5 -189z" />
<glyph unicode="%" horiz-adv-x="1726" d="M1597 346q0 -174 -91 -269t-230 -95t-226 94t-87 268t91 269.5t230 95.5t226 -94.5t87 -268.5zM768 1006q0 -174 -91 -269.5t-233 -95.5q-137 0 -225 94t-88 266q0 174 91 270.5t230.5 96.5t227.5 -95t88 -267zM1432 344q0 242 -156 242q-72 0 -110 -62.5t-38 -175.5 q0 -244 156 -244q148 0 148 240zM600 1001q0 242 -156 242q-70 0 -107.5 -62.5t-37.5 -172.5q0 -244 154 -244q147 -1 147 237zM1409 1384l-913 -1425h-183l914 1425h182z" />
<glyph unicode="&#x26;" horiz-adv-x="1482" d="M1448 14q-45 -27 -123 -26q-131 0 -330 168q-209 -178 -467 -179q-188 0 -301.5 114t-113.5 274q0 262 299 387q-86 92 -124 159.5t-38 161.5q0 121 99.5 206t257 85t252.5 -83t95 -214q0 -117 -72.5 -201t-207.5 -155q55 -66 158.5 -173.5t179.5 -172.5 q63 68 119.5 158.5t74.5 156.5l154 -39q-55 -186 -236 -377q172 -158 289 -135zM772 1057q0 61 -42 111.5t-130 50.5q-82 0 -125 -45.5t-43 -100.5t31 -109.5t108 -144.5q201 105 201 238zM874 254q-211 195 -366 383q-205 -86 -205 -260q0 -106 73 -176t195 -70 q72 0 156 32t147 91z" />
<glyph unicode="'" horiz-adv-x="417" d="M303 1450l-22 -449h-136l-26 449h184z" />
<glyph unicode="(" horiz-adv-x="659" d="M610 -397l-129 -88q-182 217 -254.5 469t-72.5 565t73.5 568t253.5 470l127 -88q-145 -209 -203.5 -407.5t-58.5 -542.5q0 -342 59.5 -539.5t204.5 -406.5z" />
<glyph unicode=")" horiz-adv-x="659" d="M506 549q0 -313 -73 -565t-255 -469l-129 88q145 209 204.5 406.5t59.5 539.5q0 344 -58 542.5t-204 407.5l127 88q180 -215 254 -470t74 -568z" />
<glyph unicode="*" horiz-adv-x="991" d="M864 954l-78 -133q-49 27 -142 105t-109 88q2 -23 22.5 -140.5t17.5 -175.5l-153 -2q-2 55 17.5 175t21.5 141q-20 -12 -112.5 -88t-141.5 -105l-78 133q47 29 158.5 71t134.5 54q-20 10 -133 52t-160 71l78 133q49 -27 140 -103.5t110 -88.5q-2 20 -20.5 139t-16.5 176 h153q2 -53 -17 -171t-21 -140q20 12 112 87t139 101l78 -133q-47 -29 -159.5 -69.5t-133.5 -51.5q25 -12 134.5 -54t158.5 -71z" />
<glyph unicode="+" horiz-adv-x="1259" d="M1114 436h-393v-436h-178v436h-398v162h398v428h178v-428h393v-162z" />
<glyph unicode="," horiz-adv-x="428" d="M299 238q84 -291 -154 -555l-100 55q78 129 92.5 243.5t-18.5 219.5z" />
<glyph unicode="-" horiz-adv-x="743" d="M643 430h-539v154h539v-154z" />
<glyph unicode="." horiz-adv-x="428" d="M338 100.5q0 -53.5 -35 -89.5t-86 -36t-86 36t-35 89.5t35 90t86 36.5t86 -36.5t35 -90z" />
<glyph unicode="/" horiz-adv-x="739" d="M743 1425l-520 -1493h-200l542 1493h178z" />
<glyph unicode="0" d="M1012 668q0 -326 -132 -507t-352 -181q-215 0 -341 180t-126 507.5t131.5 510t348.5 182.5t344 -182t127 -510zM825 651q0 262 -79.5 409.5t-213.5 147.5q-141 0 -211.5 -147.5t-70.5 -374.5q0 -262 79 -407.5t214 -145.5q139 0 210.5 145.5t71.5 372.5z" />
<glyph unicode="1" d="M766 0h-176v1165l-322 -145l-51 137l410 203h139v-1360z" />
<glyph unicode="2" d="M950 0h-854q12 150 56.5 269.5t102.5 196.5t127 139.5t134.5 107.5t119.5 88t87 95t33 116q0 94 -60.5 141t-160.5 47q-168 0 -338 -96l-56 147q205 109 422 109q188 0 288.5 -94.5t100.5 -239.5q0 -113 -57 -202t-142 -152l-174 -128q-89 -65 -163 -162t-97 -222l631 12 v-172z" />
<glyph unicode="3" d="M975 399q0 -180 -137.5 -299.5t-395.5 -119.5q-195 0 -352 71l53 142q143 -63 310 -64q129 0 228 64.5t99 181.5q0 229 -338 229h-176v152l142 4q180 6 258.5 72.5t78.5 173.5q0 88 -62 141t-169 53q-150 0 -338 -94l-47 143q225 111 420 111q184 0 284.5 -96.5 t100.5 -239.5q0 -111 -57.5 -191.5t-153.5 -123.5v-2q113 -18 182.5 -101.5t69.5 -206.5z" />
<glyph unicode="4" d="M1057 348h-203v-352h-178v352h-602v135l659 877h121v-852h203v-160zM684 1051l-408 -549q125 0 173 2l227 4l2 371q0 74 6 172z" />
<glyph unicode="5" d="M971 1346l-41 -168l-524 10v-371q293 18 427 -99.5t134 -297.5q0 -190 -136.5 -315t-398.5 -125q-182 0 -301 61l55 143q100 -55 260 -55q139 0 233.5 70.5t94.5 199.5q0 266 -371 267h-178v680h746z" />
<glyph unicode="6" d="M1006 432q0 -207 -129 -332t-322 -125q-213 0 -349 157t-136 476q0 315 161.5 533.5t427.5 218.5q152 0 273 -55l-51 -150q-106 53 -207 53q-164 0 -275.5 -123.5t-130.5 -339.5q168 106 320 107q174 0 296 -110.5t122 -309.5zM565 692q-156 0 -299 -102q-8 -203 78 -332 t219 -129q115 0 186.5 76t71.5 211q0 127 -73.5 201.5t-182.5 74.5z" />
<glyph unicode="7" d="M1038 1276q-459 -621 -575 -1280h-187q96 578 519 1202l-600 -10l-41 162h884v-74z" />
<glyph unicode="8" d="M1012 362q0 -166 -131 -274t-352.5 -108t-342 98t-120.5 276q0 229 243 338v2q-186 115 -186 307q0 156 117.5 257.5t320.5 101.5q201 0 303.5 -105.5t102.5 -242.5q0 -80 -41 -152t-81 -105.5t-83 -58.5v-2q250 -90 250 -332zM307 1014q0 -115 80 -173.5t211 -88.5 q178 104 178 249q0 88 -62.5 152t-168.5 64q-104 0 -171 -57.5t-67 -145.5zM819 352q0 115 -97 181.5t-247 89.5q-78 -25 -149.5 -92.5t-71.5 -165.5q0 -115 81 -177.5t206 -62.5q117 0 197.5 61.5t80.5 165.5z" />
<glyph unicode="9" d="M1004 727q0 -346 -159 -546.5t-437 -200.5q-154 0 -291 57l51 151q117 -57 244 -57q176 0 283.5 127t117.5 352h-2q-154 -121 -322 -121q-164 0 -285.5 103.5t-121.5 314.5q0 195 127 324t319 129q217 0 346.5 -161t129.5 -472zM811 784q-2 199 -81 312.5t-210 113.5 q-119 0 -186.5 -77.5t-67.5 -202.5q0 -133 70 -209t196 -76q84 0 160 41t119 98z" />
<glyph unicode=":" horiz-adv-x="428" d="M338 807q0 -53 -35 -89t-86 -36t-86 36t-35 89t35 90t86 37t86 -37t35 -90zM338 100.5q0 -53.5 -35 -89.5t-86 -36t-86 36t-35 89.5t35 90t86 36.5t86 -36.5t35 -90z" />
<glyph unicode=";" horiz-adv-x="428" d="M338 807q0 -53 -35 -89t-86 -36t-86 36t-35 89t35 90t86 37t86 -37t35 -90zM299 238q84 -291 -154 -555l-100 55q78 129 92.5 243.5t-18.5 219.5z" />
<glyph unicode="&#x3c;" horiz-adv-x="1234" d="M1026 68l-889 387v155l889 387v-174l-600 -250l-115 -38v-5l115 -38l600 -250v-174z" />
<glyph unicode="=" horiz-adv-x="1259" d="M1114 629h-969v162h969v-162zM1114 248h-969v162h969v-162z" />
<glyph unicode="&#x3e;" horiz-adv-x="1234" d="M1098 455l-889 -387v174l600 250l115 38v5l-115 38l-600 250v174l889 -387v-155z" />
<glyph unicode="?" horiz-adv-x="946" d="M838 1092q0 -82 -43 -156t-105.5 -126t-125 -97t-105.5 -89t-43 -81q0 -47 53 -113l-137 -86q-92 92 -92 203q0 63 42 121.5t102 103.5l120 90q59 45 101 102.5t42 118.5q0 70 -46 111t-120 41q-139 0 -270 -125l-86 115q162 162 381 161q156 0 244 -79.5t88 -214.5z M530 100.5q0 -53.5 -34.5 -89.5t-86 -36t-86 36t-34.5 89.5t34.5 90t86 36.5t86 -36.5t34.5 -90z" />
<glyph unicode="@" horiz-adv-x="1591" d="M1507 752q0 -225 -96 -344t-258 -119q-78 0 -132 46t-67 122h-2q-25 -57 -105.5 -111.5t-172.5 -54.5q-106 0 -179 75.5t-73 235.5q0 209 118.5 337t303.5 128q147 0 291 -88l-48 -338q-20 -90 -1.5 -157.5t90.5 -67.5q82 0 132 90t50 244q0 211 -141.5 361.5 t-399.5 150.5t-417.5 -172t-159.5 -465q0 -258 135 -404.5t350 -146.5q168 0 268 51l49 -129q-145 -55 -333 -55q-281 0 -451 185t-170 488q0 352 209 566.5t524 214.5q297 0 491.5 -178t194.5 -465zM969 897q-66 41 -131 41q-106 0 -180 -90t-74 -234q0 -188 127 -188 q78 0 145.5 64.5t85.5 211.5z" />
<glyph unicode="A" horiz-adv-x="1218" d="M1194 0h-190l-138 352h-522l-127 -352h-184l518 1354h117zM805 510l-141 408q-35 96 -52 167h-2q-18 -72 -53 -165l-149 -410h397z" />
<glyph unicode="B" horiz-adv-x="1083" d="M1004 406q0 -166 -115 -286t-361 -120h-366v1350h393q176 0 270.5 -100.5t94.5 -233.5q0 -205 -172 -295v-4q109 -14 182.5 -100t73.5 -211zM498 1188h-154v-418h164q88 0 154.5 58.5t66.5 156.5q0 96 -58 149.5t-173 53.5zM809 395q0 94 -68.5 153.5t-193.5 59.5h-203 v-446h186q133 0 206 64.5t73 168.5z" />
<glyph unicode="C" horiz-adv-x="1206" d="M1143 88q-190 -109 -400 -108q-301 0 -479 190t-178 489t193.5 500t498.5 201q213 0 346 -78l-2 -184q-162 100 -346 100q-223 0 -358 -151.5t-135 -378.5q0 -233 131 -381t354 -148q164 0 322 86z" />
<glyph unicode="D" horiz-adv-x="1318" d="M1233 688q0 -303 -190.5 -495.5t-548.5 -192.5h-332v1350h332q365 0 552 -181.5t187 -480.5zM1042 688q0 221 -136 360.5t-398 139.5h-164v-1026h162q143 0 249.5 42t168 116.5t90 166.5t28.5 201z" />
<glyph unicode="E" horiz-adv-x="958" d="M856 0h-694v1350h690l-59 -162h-449v-418h444v-160h-444v-448h512v-162z" />
<glyph unicode="F" horiz-adv-x="942" d="M854 1350l-61 -162h-449v-424h444v-160h-444v-604h-182v1350h692z" />
<glyph unicode="G" horiz-adv-x="1370" d="M1229 86q-195 -106 -455 -106q-313 0 -500.5 180t-187.5 489q0 317 198.5 514t520.5 197q209 0 383 -78l-2 -186q-197 102 -377 102q-254 0 -390 -147.5t-136 -393.5q0 -238 136 -377t376 -139q168 0 252 49v472h182v-576z" />
<glyph unicode="H" horiz-adv-x="1398" d="M1237 0h-182v604h-711v-604h-182v1350h182v-584h711v584h182v-1350z" />
<glyph unicode="I" horiz-adv-x="505" d="M344 0h-182v1350h182v-1350z" />
<glyph unicode="J" horiz-adv-x="626" d="M467 51q0 -207 -79 -314.5t-279 -107.5q-80 0 -144 23l35 147q43 -16 117 -16q96 0 132 70.5t36 214.5v1282h182v-1299z" />
<glyph unicode="K" horiz-adv-x="1122" d="M1098 0h-234l-518 604h-2v-604h-182v1350h180v-607h4l488 603h219l-549 -660z" />
<glyph unicode="L" horiz-adv-x="868" d="M846 0h-684v1350h182v-1188h502v-162z" />
<glyph unicode="M" horiz-adv-x="1626" d="M1464 0h-182v918q0 80 4 143h-2q-23 -57 -74 -135l-333 -533h-107l-356 535q-49 76 -74 133h-4q8 -63 8 -141v-920h-182v1350h178l410 -609q59 -94 73 -127h4q37 78 70 129l385 607h182v-1350z" />
<glyph unicode="N" horiz-adv-x="1472" d="M1311 0h-170l-660 870q-100 127 -139 201h-4q6 -68 6 -168v-903h-182v1350h186l633 -838q121 -160 147 -215h5q-4 102 -5 176v877h183v-1350z" />
<glyph unicode="O" horiz-adv-x="1521" d="M86 666q0 305 190 501q193 193 484 193q317 0 506 -211q170 -193 170 -479q0 -313 -199 -508q-188 -182 -477 -182q-279 0 -463 167q-211 195 -211 519zM1239 668q0 236 -127 382t-352 146q-219 0 -349 -143.5t-130 -385t130 -385t349 -143.5t349 143.5t130 385.5z" />
<glyph unicode="P" horiz-adv-x="999" d="M926 924q0 -193 -123 -319t-375 -126h-84v-479h-182v1350h299q215 0 340 -112.5t125 -313.5zM735 924q0 121 -74.5 192.5t-216.5 71.5h-100v-547h111q141 0 210.5 76t69.5 207z" />
<glyph unicode="Q" horiz-adv-x="1521" d="M1436 670q0 -332 -222 -527q-160 -145 -401 -166q80 -80 151.5 -116.5t172.5 -36.5q82 0 159 29l39 -134q-98 -43 -245 -43q-162 0 -280 85t-230 235q-172 45 -291 156q-203 199 -203 514q0 299 186 495q188 199 488 199q285 0 473 -178q203 -193 203 -512zM1239 668 q0 236 -127 382t-352 146q-219 0 -349 -143.5t-130 -385t130 -385t349 -143.5t349 143.5t130 385.5z" />
<glyph unicode="R" horiz-adv-x="1103" d="M1079 0h-215l-66 110l-62 100l-54 87l-49 78l-41 62q-23 34 -37 52.5t-30.5 35t-28 23.5t-21.5 7h-131v-555h-182v1350h307q233 0 345 -102.5t112 -268.5q0 -137 -71 -229.5t-187 -131.5v-4q45 -23 350 -516q41 -63 61 -98zM735 961q0 100 -63.5 163.5t-200.5 63.5h-127 v-471h125q115 0 190.5 71t75.5 173z" />
<glyph unicode="S" horiz-adv-x="995" d="M913 342q0 -162 -125.5 -262t-316.5 -100q-217 0 -385 112l82 141q131 -98 297 -98q100 0 177 48t77 141q0 76 -55.5 138t-127 99t-163.5 94.5t-144 114.5q-94 100 -94 244q0 150 108.5 248t297.5 98q176 0 311 -68l-2 -180q-143 90 -301 90q-100 0 -165 -43t-65 -127 q0 -78 61.5 -139.5t148.5 -109.5l174.5 -101t148.5 -140t61 -200z" />
<glyph unicode="T" horiz-adv-x="1052" d="M1044 1350l-55 -162h-377v-1188h-184v1188h-387v162h1003z" />
<glyph unicode="U" horiz-adv-x="1370" d="M1200 469q0 -221 -127 -350q-135 -139 -401 -139q-248 0 -377 122q-131 129 -131 387v861h182v-856q0 -174 90 -267q84 -88 240 -88q178 0 262 88q80 86 80 254v869h182v-881z" />
<glyph unicode="V" horiz-adv-x="1286" d="M1262 1350l-582 -1356h-115l-538 1356h192l330 -854l78 -220h4q49 139 82 218l356 856h193z" />
<glyph unicode="W" horiz-adv-x="1888" d="M1866 1350l-461 -1356h-141l-238 661q-49 141 -68 205h-4q-33 -115 -67 -203l-246 -663h-141l-473 1356h200l289 -873q47 -147 62 -203h4q14 51 67 201l221 612l-92 263h189l297 -861q68 -193 71 -206h4q29 115 58 200l278 867h191z" />
<glyph unicode="X" horiz-adv-x="1210" d="M618 815l377 535h207l-475 -674l449 -676h-209l-357 532l-377 -532h-206l473 672l-453 678h217z" />
<glyph unicode="Y" horiz-adv-x="1128" d="M1106 1350l-444 -811v-539h-183v543l-452 807h200l232 -418q113 -213 114 -217h5q43 92 108 215l227 420h193z" />
<glyph unicode="Z" horiz-adv-x="1142" d="M1081 0h-993l680 1192l-616 -6l-54 164h959l-672 -1190l696 4v-164z" />
<glyph unicode="[" horiz-adv-x="585" d="M539 -477h-367v2056h367v-147h-197v-1760h197v-149z" />
<glyph unicode="\" horiz-adv-x="759" d="M733 -68h-182l-520 1493h182z" />
<glyph unicode="]" horiz-adv-x="585" d="M418 -477h-367v149h197v1760h-197v147h367v-2056z" />
<glyph unicode="^" horiz-adv-x="1220" d="M1022 588h-172l-199 473l-39 115h-4l-39 -115l-198 -473h-172l333 762h156z" />
<glyph unicode="_" horiz-adv-x="921" d="M922 -254h-922v123h922v-123z" />
<glyph unicode="`" horiz-adv-x="1110" d="M426 1389h225l119 -302h-152z" />
<glyph unicode="a" horiz-adv-x="964" d="M866 0h-151l-39 92q-121 -113 -293 -112q-127 0 -215 82.5t-88 218.5q0 145 102.5 228t292.5 89l189 6v37q0 203 -201 203q-135 0 -254 -84l-68 123q156 111 355 110q350 0 350 -336v-325q0 -283 20 -332zM664 225v234l-177 -6q-225 -8 -225 -158q0 -72 46 -118t132 -46 q130 0 224 94z" />
<glyph unicode="b" horiz-adv-x="1032" d="M954 518q0 -246 -155.5 -392t-384.5 -146q-180 0 -287 63v1407h180v-498q109 41 209 41q184 0 311 -124t127 -351zM774 508q0 141 -76.5 232t-212.5 91q-82 0 -178 -43v-632q57 -23 144 -23q137 0 230 108.5t93 266.5z" />
<glyph unicode="c" horiz-adv-x="907" d="M856 78q-147 -98 -319 -98q-217 0 -338 142t-121 353q0 217 131 367.5t356 150.5q139 0 256 -63l-2 -162q-109 74 -250 74t-225 -100.5t-84 -256.5q0 -154 82 -254t225 -100q121 0 238 72z" />
<glyph unicode="d" horiz-adv-x="1044" d="M918 51q-129 -72 -332 -71q-219 0 -363.5 128t-144.5 365q0 225 147.5 372.5t364.5 147.5q82 0 145 -14v471h183v-1399zM735 154v665q-61 20 -137 21q-143 0 -240.5 -98.5t-97.5 -258t91 -256t259 -96.5q72 0 125 23z" />
<glyph unicode="e" horiz-adv-x="966" d="M889 446h-621q0 -135 82 -225t223 -90q115 0 236 72l51 -125q-137 -98 -321 -98q-223 0 -342 149.5t-119 368.5q0 213 113.5 354t295.5 141q188 0 295 -135t107 -364v-48zM696 588q0 102 -55 180t-156 78q-98 0 -158.5 -75t-60.5 -183h430z" />
<glyph unicode="f" horiz-adv-x="647" d="M662 1413l-37 -139q-53 27 -119 26q-125 0 -125 -155v-176h254l-57 -148h-197v-821h-182v821h-127v148h127v159q0 94 28.5 161t76.5 99.5t96.5 47t101.5 14.5q88 0 160 -37z" />
<glyph unicode="g" horiz-adv-x="989" d="M987 -168q0 -133 -127 -225t-373 -92q-211 0 -333.5 83t-122.5 205q0 150 182 238q-68 37 -68 121q0 94 115 182q-76 41 -119 121t-43 174q0 150 105.5 252t267.5 102q109 0 176 -35q12 -6 25 3q80 77 210 76q33 0 70 -5l-45 -151q-43 10 -76 9q-37 0 -63 -11 q104 -104 104 -250q0 -158 -108.5 -256.5t-276.5 -98.5q-72 0 -127 21q-41 -51 -41 -100q0 -39 69 -57.5t167 -30t196.5 -32t167 -82t68.5 -161.5zM479 846q-88 0 -144 -56.5t-56 -150.5t56 -155.5t148 -61.5q90 0 147.5 56.5t57.5 156.5q0 92 -58.5 151.5t-150.5 59.5z M786 -186q0 70 -82.5 103.5t-216 48t-163.5 24.5q-119 -76 -119 -162q0 -74 82 -123t215 -49q131 0 207.5 43t76.5 115z" />
<glyph unicode="h" horiz-adv-x="1056" d="M930 0h-182v590q0 109 -34 173t-130 64q-119 0 -277 -135v-692h-180v1450h180v-592q178 135 334 135q123 0 206 -84t83 -272v-637z" />
<glyph unicode="i" horiz-adv-x="491" d="M246 1393q49 0 85 -35t36 -84t-36 -85t-85 -36q-51 0 -86 35t-35 86q0 49 36 84t85 35zM336 0h-180v969h180v-969z" />
<glyph unicode="j" horiz-adv-x="516" d="M270 1393q51 0 86 -35t35 -84t-34.5 -85t-86 -36t-86 35t-34.5 86q0 49 35.5 84t84.5 35zM360 -133q0 -182 -81.5 -267t-208.5 -85q-100 0 -172 39l41 135q57 -27 106 -27q133 0 133 223v1084h182v-1102z" />
<glyph unicode="k" horiz-adv-x="911" d="M926 0h-224l-391 485h-4v-485h-180v1450h180v-819h4l340 338h226l-416 -402z" />
<glyph unicode="l" horiz-adv-x="505" d="M465 18q-72 -39 -150 -38q-94 0 -140 52t-46 138v1280h180v-1200q0 -61 16.5 -84t59.5 -23q31 0 57 9z" />
<glyph unicode="m" horiz-adv-x="1662" d="M1536 0h-182v623q0 102 -32 156.5t-118 54.5q-127 0 -282 -134q2 -14 2 -49v-651h-183v618q0 102 -32.5 159t-118.5 57q-127 0 -281 -136v-698h-182v969h152l22 -113q176 137 342 137q88 0 151.5 -43t92.5 -114q174 158 350 157q129 0 214 -73.5t85 -239.5v-680z" />
<glyph unicode="n" horiz-adv-x="1058" d="M932 0h-182v588q0 106 -33 172.5t-127 66.5q-127 0 -283 -135v-692h-180v969h152l22 -111q182 135 344 135q119 0 203 -86t84 -258v-649z" />
<glyph unicode="o" horiz-adv-x="1067" d="M532 993q199 0 324 -131q133 -139 133 -376.5t-137 -379.5q-123 -127 -322 -126q-190 0 -313 118q-139 139 -139 385q0 238 137 381q124 129 317 129zM530 844q-129 0 -198.5 -96.5t-69.5 -260t73 -261t200 -97.5q125 0 196.5 98.5t71.5 259.5q0 164 -72 260.5t-201 96.5 z" />
<glyph unicode="p" horiz-adv-x="1034" d="M956 498q0 -242 -143 -380t-350 -138q-80 0 -156 28v-493h-180v1413q186 66 336 65q231 0 362 -133t131 -362zM770 492q0 170 -88 257t-225 87q-74 0 -150 -23v-649q66 -33 148 -33q145 0 230 97.5t85 263.5z" />
<glyph unicode="q" horiz-adv-x="1056" d="M930 -485h-182v538q-113 -74 -256 -73q-168 0 -291 128t-123 357q0 240 156.5 384t383.5 144q164 0 312 -63v-1415zM748 215v602q-61 23 -146 23q-154 0 -247 -104.5t-93 -262.5t78 -248t193 -90t215 80z" />
<glyph unicode="r" horiz-adv-x="673" d="M684 961l-72 -168q-45 23 -96 22q-90 0 -209 -106v-709h-180v969h149l25 -109q145 133 266 133q68 1 117 -32z" />
<glyph unicode="s" horiz-adv-x="794" d="M727 270q0 -147 -104.5 -218.5t-272.5 -71.5q-178 0 -309 79l63 138q121 -76 244 -76q86 0 139.5 34.5t53.5 96.5q0 59 -45 98t-111 65.5t-131.5 58.5t-110.5 95.5t-45 157.5q0 117 87 191.5t249 74.5q137 0 258 -51v-156q-143 59 -250 60q-166 0 -166 -111 q0 -53 46.5 -91t113 -64.5t133 -60.5t112.5 -96.5t46 -152.5z" />
<glyph unicode="t" horiz-adv-x="729" d="M698 78q-135 -98 -278 -98q-111 0 -165 57t-54 156v630h-162v146h162v217l182 57v-274h299l-59 -146h-240v-569q0 -117 94 -117q82 0 168 64z" />
<glyph unicode="u" horiz-adv-x="1054" d="M928 0h-148l-39 98q-139 -119 -309 -118q-53 0 -102 16t-97.5 52t-77 109.5t-28.5 174.5v637h182v-623q0 -215 183 -215q137 0 235 113v725h180v-609q1 -299 21 -360z" />
<glyph unicode="v" horiz-adv-x="944" d="M934 969l-404 -975h-137l-379 975h185l264 -738h4l289 738h178z" />
<glyph unicode="w" horiz-adv-x="1462" d="M1452 969l-332 -975h-151l-234 741h-6l-233 -741h-150l-332 975h185l227 -731h6l230 731h153l234 -733h6l223 733h174z" />
<glyph unicode="x" horiz-adv-x="940" d="M483 621l260 348h193l-352 -477l346 -492h-203l-252 356l-264 -356h-197l359 485l-342 484h207z" />
<glyph unicode="y" horiz-adv-x="1007" d="M981 969l-371 -1043q-86 -244 -192.5 -327.5t-247.5 -83.5q-102 0 -195 39l45 139q66 -33 146 -33q193 0 289 336l-439 973h193l332 -758h6l254 758h180z" />
<glyph unicode="z" horiz-adv-x="860" d="M803 0h-744l463 821l-407 -4l-45 152h723l-451 -819l461 4v-154z" />
<glyph unicode="{" horiz-adv-x="659" d="M100 489v140q29 2 44.5 4t39 14t34.5 41t11 76q0 68 -1 229.5t-1 212.5q0 160 77 251t263 120l35 -170q-104 -14 -146 -64.5t-42 -148.5q0 -47 1 -184.5t1 -196.5q0 -121 -42 -181.5t-98 -70.5v-4q55 -10 97.5 -70.5t42.5 -181.5q0 -59 -1 -196.5t-1 -184.5 q0 -98 42 -148t146 -65l-35 -170q-186 29 -263 120t-77 251q0 311 2 442q0 47 -10 76t-34.5 41t-40 14t-44.5 4z" />
<glyph unicode="|" horiz-adv-x="516" d="M344 -485h-172v2082h172v-2082z" />
<glyph unicode="}" horiz-adv-x="659" d="M561 489q-29 -2 -44 -4t-39.5 -14t-35 -41t-10.5 -76q2 -131 2 -442q0 -160 -76.5 -251t-263.5 -120l-35 170q104 14 146.5 64.5t42.5 148.5q0 47 -1 184.5t-1 196.5q0 121 42 181.5t97 70.5v4q-55 10 -97 70.5t-42 181.5q0 59 1 196.5t1 184.5q0 98 -42 148.5t-147 64.5 l35 170q186 -29 263 -120t77 -251q0 -51 -1 -213t-1 -229q0 -47 11.5 -76t35 -41t38.5 -14t44 -4v-140z" />
<glyph unicode="~" horiz-adv-x="1251" d="M1094 494q-162 -117 -273 -117q-72 0 -166 37l-102 39q-80 29 -125 28q-68 0 -188 -84l-82 135q158 117 270 117q72 0 168 -37l102 -39q74 -31 125 -30q66 0 187 86z" />
<glyph unicode="&#xa1;" horiz-adv-x="565" d="M406 868.5q0 -53.5 -35 -90.5t-86.5 -37t-86 37t-34.5 90.5t34.5 89t86 35.5t86.5 -35.5t35 -89zM377 -383h-184v119q0 377 9 533.5t40 342.5h86q31 -193 40 -349.5t9 -524.5v-121z" />
<glyph unicode="&#xa2;" d="M907 293q-94 -66 -248 -82v-197h-153v203q-158 31 -254 154t-96 299q0 170 95 299t259 170v196h154v-180q133 -2 208 -47v-156q-88 51 -221 52q-145 0 -229 -95.5t-84 -228.5q0 -143 84 -230.5t217 -87.5q131 0 223 62z" />
<glyph unicode="&#xa3;" d="M950 1315l-39 -144q-70 41 -159 41q-109 0 -183.5 -68.5t-74.5 -232.5v-141h387l-60 -156h-327q-4 -360 -125 -462v-2q63 12 204 12h369v-162h-811v135q182 53 182 479h-151v156h151v152q0 109 31 191.5t76 127.5t105.5 73.5t109.5 37t98 8.5q123 0 217 -45z" />
<glyph unicode="&#xa4;" d="M1044 260l-114 -115l-131 131q-123 -82 -264 -81q-145 0 -265 84l-133 -136l-114 115l133 133q-84 125 -84 266q0 145 84 265l-136 131l115 114l131 -131q125 84 269 84q147 0 266 -84l131 131l115 -114l-132 -131q82 -123 82 -265q0 -147 -84 -266zM850 657.5 q0 135.5 -91 230.5t-224 95q-135 0 -226.5 -95t-91.5 -230.5t91 -230.5t227 -95q133 0 224 95t91 230.5z" />
<glyph unicode="&#xa5;" d="M1071 1350l-364 -664h256v-143h-338v-158h338v-143h-338v-242h-183v242h-344v143h344v158h-344v143h264l-366 664h201l225 -418q78 -143 115 -217h4q41 88 110 215l228 420h192z" />
<glyph unicode="&#xa6;" horiz-adv-x="516" d="M344 870h-172v727h172v-727zM344 -485h-172v727h172v-727z" />
<glyph unicode="&#xa7;" horiz-adv-x="1062" d="M981 524q0 -180 -190 -291q104 -100 104 -233q0 -158 -119 -248t-303 -90q-217 0 -360 105l77 141q129 -90 281 -90q96 0 166 43t70 129q0 74 -60.5 130t-146.5 98t-173 90t-147.5 129t-60.5 192q0 186 184 286q-100 96 -100 244q0 141 104.5 231.5t276.5 90.5 q176 0 299 -66v-178q-137 86 -291 86q-94 0 -153.5 -39t-59.5 -115q0 -70 62.5 -127t150.5 -102t176 -95t150.5 -132.5t62.5 -188.5zM799 500q0 61 -42 113.5t-91.5 81t-137.5 73.5t-131 74q-109 -76 -108 -183q0 -49 24.5 -90t70.5 -75.5t92 -61.5l113 -63q67 -37 107 -64 q103 82 103 195z" />
<glyph unicode="&#xa8;" horiz-adv-x="784" d="M680 1247q0 -45 -31 -76.5t-76 -31.5t-75.5 31.5t-30.5 76.5t30.5 77t75.5 32t76 -32t31 -77zM322 1247q0 -45 -32 -76.5t-77 -31.5q-43 0 -75 31.5t-32 76.5t32 77t75 32q45 0 77 -32t32 -77z" />
<glyph unicode="&#xa9;" horiz-adv-x="1611" d="M1485 670q0 -297 -195.5 -493.5t-488.5 -196.5q-301 0 -487.5 194.5t-186.5 495.5q0 299 188.5 494.5t489.5 195.5q293 0 486.5 -196.5t193.5 -493.5zM1354 670q0 250 -158 414.5t-391.5 164.5t-390 -164.5t-156.5 -414.5t156.5 -415t390 -165t391.5 165t158 415z M1061 319q-115 -66 -248 -65q-166 0 -273.5 114.5t-107.5 293t113.5 299t292.5 120.5q129 0 206 -47v-135q-102 63 -210 64q-121 0 -195 -83t-74 -212q0 -131 73 -214t193 -83q92 0 189 55z" />
<glyph unicode="&#xaa;" horiz-adv-x="813" d="M674 719h-113l-22 61q-78 -74 -199 -73q-86 0 -144.5 53t-58.5 141q0 94 65.5 148.5t180.5 58.5l135 4v21q0 109 -127 108q-84 0 -166 -55l-49 98q113 76 242 76q106 0 173.5 -51.5t67.5 -165.5v-209q1 -172 15 -215zM518 872v132l-115 -3q-121 -2 -120 -90q0 -92 94 -92 q84 0 141 53z" />
<glyph unicode="&#xab;" horiz-adv-x="1146" d="M1008 106l-144 -86l-340 474l340 475l144 -86l-283 -389zM580 106l-144 -86l-340 474l340 475l144 -86l-283 -389z" />
<glyph unicode="&#xac;" horiz-adv-x="1259" d="M1114 172h-178v436h-791v162h969v-598z" />
<glyph unicode="&#xad;" horiz-adv-x="743" d="M643 430h-539v154h539v-154z" />
<glyph unicode="&#xae;" horiz-adv-x="1206" d="M1079 879q0 -205 -138 -344.5t-341 -139.5q-209 0 -342 137.5t-133 346t133 346t344 137.5q205 0 341 -138t136 -345zM967 878.5q0 165.5 -104.5 277.5t-262.5 112t-262.5 -112t-104.5 -277.5t104.5 -277.5t262.5 -112t262.5 112t104.5 277.5zM817 614h-115l-44 74 l-36 64q-13 23 -27.5 44t-24 30.5t-15.5 9.5h-25v-222h-98v541h152q86 0 134 -41t48 -106q0 -104 -115 -144v-2q29 -10 166 -248zM664 997q0 76 -97 76h-37v-158h33q43 0 72 21.5t29 60.5z" />
<glyph unicode="&#xaf;" horiz-adv-x="790" d="M662 1169h-529v146h529v-146z" />
<glyph unicode="&#xb0;" horiz-adv-x="794" d="M713 1036q0 -133 -91.5 -223t-226.5 -90t-224 90t-89 223t90 223.5t225 90.5t225.5 -90.5t90.5 -223.5zM565 1036.5q0 75.5 -48 126.5t-119.5 51t-121 -51t-49.5 -126.5t49.5 -127t121 -51.5t119.5 51.5t48 127z" />
<glyph unicode="&#xb1;" horiz-adv-x="1255" d="M1114 569h-393v-295h-178v295h-398v162h398v297h178v-297h393v-162zM1114 0h-969v162h969v-162z" />
<glyph unicode="&#xb2;" horiz-adv-x="761" d="M639 545h-557q8 119 50 209t98.5 139t110.5 87t92 77t38 82q0 39 -26.5 65.5t-75.5 26.5q-74 0 -209 -72l-47 125q156 80 288 80q115 0 178.5 -60.5t63.5 -158.5q0 -66 -31.5 -117t-79.5 -85l-97 -66q-50 -33 -93 -82.5t-59 -110.5l356 8v-147z" />
<glyph unicode="&#xb3;" horiz-adv-x="761" d="M653 780q0 -109 -84 -177t-241 -68q-139 0 -246 47l49 125q104 -39 193 -39q158 0 157 112q0 72 -80 99q-31 10 -94 10h-119v133l103 2q166 2 166 115q0 92 -115 92q-84 0 -190 -51l-43 123q133 61 268 61q123 0 186.5 -57.5t63.5 -147.5q0 -68 -40 -118t-100 -70v-4 q72 -10 119 -59.5t47 -127.5z" />
<glyph unicode="&#xb4;" horiz-adv-x="1110" d="M721 1389l-193 -302h-151l119 302h225z" />
<glyph unicode="&#xb5;" horiz-adv-x="1085" d="M946 0h-149l-39 98q-133 -119 -285 -118q-113 0 -151 49h-3q6 -68 7 -226v-286h-183v1452h183v-623q0 -215 182 -215q137 0 235 113v725h181v-637q-1 -264 22 -332z" />
<glyph unicode="&#xb6;" horiz-adv-x="1224" d="M1061 -328h-168v1538h-219v-1538h-166v875h-25q-162 0 -271.5 117.5t-109.5 283.5q0 168 110 285t271 117h35h543v-1678z" />
<glyph unicode="&#xb7;" horiz-adv-x="428" d="M338 520q0 -53 -35 -89t-86 -36t-86 36t-35 89t35 89t86 36t86 -36t35 -89z" />
<glyph unicode="&#xb8;" horiz-adv-x="1042" d="M668 -217q0 -72 -64.5 -112t-142.5 -40t-131 27l30 86q43 -25 95 -25q33 0 56.5 16.5t23.5 43.5q0 49 -93 53l-59 2l51 166h123l-29 -92q140 -10 140 -125z" />
<glyph unicode="&#xb9;" horiz-adv-x="761" d="M508 545h-158v645l-184 -80l-49 127l258 123h133v-815z" />
<glyph unicode="&#xba;" horiz-adv-x="878" d="M743 1032q0 -158 -98 -252q-76 -74 -213 -73q-123 0 -205 77q-90 90 -90 248q0 150 90 244q84 84 215 84q137 0 220 -88q81 -93 81 -240zM596 1032q0 98 -41 152.5t-113 54.5q-70 0 -112.5 -54.5t-42.5 -150.5t43 -152.5t114 -56.5q70 0 111 54.5t41 152.5z" />
<glyph unicode="&#xbb;" horiz-adv-x="1146" d="M1055 494l-340 -474l-144 86l283 388l-283 389l144 86zM627 494l-340 -474l-144 86l283 388l-283 389l144 86z" />
<glyph unicode="&#xbc;" horiz-adv-x="1703" d="M1376 1384l-913 -1425h-182l913 1425h182zM475 545h-158v645l-184 -80l-49 127l258 123h133v-815zM1563 180h-109v-180h-158v180h-383v109l379 526h162v-502h109v-133zM1298 590l-200 -281q94 4 151 4h47v84q0 132 2 193z" />
<glyph unicode="&#xbd;" horiz-adv-x="1703" d="M1376 1384l-913 -1425h-182l913 1425h182zM471 545h-158v645l-184 -80l-49 127l258 123h133v-815zM1620 0h-557q8 119 50 209t98.5 139t110.5 87t92 77t38 82q0 39 -26.5 65.5t-75.5 26.5q-74 0 -209 -72l-47 125q156 80 288 80q115 0 178.5 -60.5t63.5 -158.5 q0 -66 -31.5 -117t-79.5 -85l-97 -66q-50 -33 -93 -82t-59 -111l356 8v-147z" />
<glyph unicode="&#xbe;" horiz-adv-x="1703" d="M1419 1384l-913 -1425h-182l913 1425h182zM637 780q0 -109 -84 -177t-242 -68q-139 0 -245 47l49 125q104 -39 192 -39q158 0 158 112q0 72 -80 99q-31 10 -94 10h-119v133l102 2q166 2 166 115q0 92 -114 92q-84 0 -191 -51l-43 123q133 61 268 61q123 0 186.5 -57.5 t63.5 -147.5q0 -68 -40 -118t-99 -70v-4q72 -10 119 -59.5t47 -127.5zM1597 180h-108v-180h-158v180h-383v109l379 526h162v-502h108v-133zM1333 590l-200 -281q94 4 151 4h47v84q0 132 2 193z" />
<glyph unicode="&#xbf;" horiz-adv-x="946" d="M627 868.5q0 -53.5 -35 -90.5t-86 -37t-87 37t-36 90.5t36 89t87 35.5t86 -35.5t35 -89zM825 -256q-162 -162 -383 -162q-154 0 -241.5 80t-87.5 215q0 82 43 155.5t105.5 126t125 97.5t105.5 89t43 81q0 47 -54 113l137 86q92 -92 93 -203q0 -63 -42 -121.5t-102 -103.5 l-120 -91q-60 -45 -102 -102t-42 -119q0 -70 46 -110.5t120 -40.5q139 0 270 125z" />
<glyph unicode="&#xc0;" horiz-adv-x="1218" d="M1194 0h-190l-138 352h-522l-127 -352h-184l518 1354h117zM805 510l-141 408q-35 96 -52 167h-2q-18 -72 -53 -165l-149 -410h397zM360 1726h226l119 -301h-152z" />
<glyph unicode="&#xc1;" horiz-adv-x="1218" d="M1194 0h-190l-138 352h-522l-127 -352h-184l518 1354h117zM805 510l-141 408q-35 96 -52 167h-2q-18 -72 -53 -165l-149 -410h397zM874 1726l-192 -301h-152l119 301h225z" />
<glyph unicode="&#xc2;" horiz-adv-x="1218" d="M1194 0h-190l-138 352h-522l-127 -352h-184l518 1354h117zM805 510l-141 408q-35 96 -52 167h-2q-18 -72 -53 -165l-149 -410h397zM907 1425h-168l-127 187l-125 -187h-165l210 301h160z" />
<glyph unicode="&#xc3;" horiz-adv-x="1218" d="M1194 0h-190l-138 352h-522l-127 -352h-184l518 1354h117zM805 510l-141 408q-35 96 -52 167h-2q-18 -72 -53 -165l-149 -410h397zM889 1632q0 -68 -41 -110.5t-103 -42.5q-55 0 -116 30l-62 27q-53 25 -80 25q-47 0 -47 -52v-18h-110v47q0 68 41 111t104 43 q49 0 115 -29l59 -27q57 -27 82 -26q45 0 45 51v20h113v-49z" />
<glyph unicode="&#xc4;" horiz-adv-x="1218" d="M1194 0h-190l-138 352h-522l-127 -352h-184l518 1354h117zM805 510l-141 408q-35 96 -52 167h-2q-18 -72 -53 -165l-149 -410h397zM903 1554q0 -45 -30.5 -76.5t-75.5 -31.5t-76 31.5t-31 76.5t31 77t76 32t75.5 -32t30.5 -77zM545 1554q0 -45 -32 -76.5t-77 -31.5 q-43 0 -74.5 31.5t-31.5 76.5t31.5 77t74.5 32q45 0 77 -32t32 -77z" />
<glyph unicode="&#xc5;" horiz-adv-x="1218" d="M672 1341l522 -1341h-190l-138 352h-522l-127 -352h-184l514 1343q-63 16 -99 66.5t-36 122.5q0 86 56 139t146 53q88 0 144.5 -53t56.5 -139q0 -72 -38.5 -123.5t-104.5 -67.5zM805 510l-141 408q-35 96 -52 167h-2q-18 -72 -53 -165l-149 -410h397zM709 1534 q0 49 -26 78.5t-71 29.5t-71.5 -29.5t-26.5 -78.5q0 -51 26.5 -81t71.5 -30q97 0 97 111z" />
<glyph unicode="&#xc6;" horiz-adv-x="1642" d="M1540 0h-590l-61 352h-483l-187 -352h-186l708 1350h795l-61 -162h-545l69 -418h474v-160h-443l78 -448h432v-162zM856 510l-59 399q-4 27 -10.5 82.5t-12.5 93.5h-2q-14 -37 -82 -176l-201 -399h367z" />
<glyph unicode="&#xc7;" horiz-adv-x="1206" d="M1122 1098q-162 100 -346 100q-223 0 -358 -151.5t-135 -378.5q0 -233 131 -381t354 -148q164 0 322 86l55 -137q-186 -104 -383 -108l-23 -72q139 -10 140 -125q0 -72 -64.5 -112t-142.5 -40t-131 27l30 86q43 -25 95 -25q33 0 56 16.5t23 43.5q0 49 -92 53l-59 2 l49 154q-258 33 -406.5 216t-148.5 455q0 299 193.5 500t498.5 201q213 0 346 -78z" />
<glyph unicode="&#xc8;" horiz-adv-x="958" d="M856 0h-694v1350h690l-59 -162h-449v-418h444v-160h-444v-448h512v-162zM256 1726h225l119 -301h-151z" />
<glyph unicode="&#xc9;" horiz-adv-x="958" d="M856 0h-694v1350h690l-59 -162h-449v-418h444v-160h-444v-448h512v-162zM754 1726l-193 -301h-151l118 301h226z" />
<glyph unicode="&#xca;" horiz-adv-x="958" d="M856 0h-694v1350h690l-59 -162h-449v-418h444v-160h-444v-448h512v-162zM795 1425h-168l-127 187l-125 -187h-166l211 301h160z" />
<glyph unicode="&#xcb;" horiz-adv-x="958" d="M856 0h-694v1350h690l-59 -162h-449v-418h444v-160h-444v-448h512v-162zM791 1554q0 -45 -31 -76.5t-76 -31.5t-75.5 31.5t-30.5 76.5t30.5 77t75.5 32t76 -32t31 -77zM432 1554q0 -45 -31.5 -76.5t-76.5 -31.5q-43 0 -75 31.5t-32 76.5t32 77t75 32q45 0 76.5 -32 t31.5 -77z" />
<glyph unicode="&#xcc;" horiz-adv-x="505" d="M346 0h-182v1350h182v-1350zM0 1726h225l119 -301h-151z" />
<glyph unicode="&#xcd;" horiz-adv-x="505" d="M346 0h-182v1350h182v-1350zM510 1726l-193 -301h-151l119 301h225z" />
<glyph unicode="&#xce;" horiz-adv-x="505" d="M346 0h-182v1350h182v-1350zM547 1425h-168l-127 187l-125 -187h-166l211 301h160z" />
<glyph unicode="&#xcf;" horiz-adv-x="505" d="M346 0h-182v1350h182v-1350zM543 1554q0 -45 -31 -76.5t-76 -31.5t-75.5 31.5t-30.5 76.5t30.5 77t75.5 32t76 -32t31 -77zM184 1554q0 -45 -31.5 -76.5t-76.5 -31.5q-43 0 -75 31.5t-32 76.5t32 77t75 32q45 0 76.5 -32t31.5 -77z" />
<glyph unicode="&#xd0;" horiz-adv-x="1318" d="M1235 688q0 -303 -190.5 -495.5t-548.5 -192.5h-332v598h-160v162h160v590h332q365 0 552 -181.5t187 -480.5zM1044 688q0 221 -136 360.5t-398 139.5h-164v-428h336v-162h-336v-436h162q143 0 249.5 42t168 116.5t90 166.5t28.5 201z" />
<glyph unicode="&#xd1;" horiz-adv-x="1472" d="M1311 0h-170l-660 870q-100 127 -139 201h-4q6 -68 6 -168v-903h-182v1350h186l633 -838q121 -160 147 -215h5q-4 102 -5 176v877h183v-1350zM1004 1630q0 -68 -41 -110.5t-103 -42.5q-55 0 -117 30l-61 27q-53 25 -80 25q-47 0 -47 -52v-18h-111v47q0 68 41 111t105 43 q49 0 115 -29l59 -27q57 -27 82 -26q45 0 45 51v20h113v-49z" />
<glyph unicode="&#xd2;" horiz-adv-x="1521" d="M86 666q0 305 190 501q193 193 484 193q317 0 506 -211q170 -193 170 -479q0 -313 -199 -508q-188 -182 -477 -182q-279 0 -463 167q-211 195 -211 519zM1239 668q0 236 -127 382t-352 146q-219 0 -349 -143.5t-130 -385t130 -385t349 -143.5t349 143.5t130 385.5z M504 1726h225l119 -301h-152z" />
<glyph unicode="&#xd3;" horiz-adv-x="1521" d="M86 666q0 305 190 501q193 193 484 193q317 0 506 -211q170 -193 170 -479q0 -313 -199 -508q-188 -182 -477 -182q-279 0 -463 167q-211 195 -211 519zM1239 668q0 236 -127 382t-352 146q-219 0 -349 -143.5t-130 -385t130 -385t349 -143.5t349 143.5t130 385.5z M1026 1726l-192 -301h-152l119 301h225z" />
<glyph unicode="&#xd4;" horiz-adv-x="1521" d="M86 666q0 305 190 501q193 193 484 193q317 0 506 -211q170 -193 170 -479q0 -313 -199 -508q-188 -182 -477 -182q-279 0 -463 167q-211 195 -211 519zM1239 668q0 236 -127 382t-352 146q-219 0 -349 -143.5t-130 -385t130 -385t349 -143.5t349 143.5t130 385.5z M1051 1425h-168l-127 187l-125 -187h-166l211 301h160z" />
<glyph unicode="&#xd5;" horiz-adv-x="1521" d="M86 666q0 305 190 501q193 193 484 193q317 0 506 -211q170 -193 170 -479q0 -313 -199 -508q-188 -182 -477 -182q-279 0 -463 167q-211 195 -211 519zM1239 668q0 236 -127 382t-352 146q-219 0 -349 -143.5t-130 -385t130 -385t349 -143.5t349 143.5t130 385.5z M1038 1630q0 -68 -41 -110.5t-102 -42.5q-55 0 -117 30l-61 27q-53 25 -80 25q-47 0 -47 -52v-18h-111v47q0 68 41 111t105 43q49 0 114 -29l60 -27q57 -27 82 -26q45 0 45 51v20h112v-49z" />
<glyph unicode="&#xd6;" horiz-adv-x="1521" d="M86 666q0 305 190 501q193 193 484 193q317 0 506 -211q170 -193 170 -479q0 -313 -199 -508q-188 -182 -477 -182q-279 0 -463 167q-211 195 -211 519zM1239 668q0 236 -127 382t-352 146q-219 0 -349 -143.5t-130 -385t130 -385t349 -143.5t349 143.5t130 385.5z M1044 1554q0 -45 -30.5 -76.5t-75.5 -31.5t-76 31.5t-31 76.5t31 77t76 32t75.5 -32t30.5 -77zM686 1554q0 -45 -31.5 -76.5t-76.5 -31.5q-43 0 -75 31.5t-32 76.5t32 77t75 32q45 0 76.5 -32t31.5 -77z" />
<glyph unicode="&#xd7;" horiz-adv-x="1286" d="M1169 92l-114 -115l-412 414l-412 -414l-114 115l411 414l-413 412l114 114l414 -411l414 409l112 -115l-411 -409z" />
<glyph unicode="&#xd8;" horiz-adv-x="1521" d="M1126 1032l-626 -823q111 -70 260 -70q219 0 349 143.5t130 385.5q0 223 -113 364zM1237 1180q199 -199 199 -510q0 -313 -199 -508q-188 -182 -477 -182q-205 0 -363 94l-102 -137l-127 92l106 141q-188 193 -188 496q0 305 190 501q193 193 484 193q195 0 350 -86 l107 141l129 -92zM1006 1137q-109 59 -246 59q-219 0 -349 -143.5t-130 -384.5q0 -217 104 -353z" />
<glyph unicode="&#xd9;" horiz-adv-x="1370" d="M1200 469q0 -221 -127 -350q-135 -139 -401 -139q-248 0 -377 122q-131 129 -131 387v861h182v-856q0 -174 90 -267q84 -88 240 -88q178 0 262 88q80 86 80 254v869h182v-881zM432 1729h225l119 -302h-151z" />
<glyph unicode="&#xda;" horiz-adv-x="1370" d="M1200 469q0 -221 -127 -350q-135 -139 -401 -139q-248 0 -377 122q-131 129 -131 387v861h182v-856q0 -174 90 -267q84 -88 240 -88q178 0 262 88q80 86 80 254v869h182v-881zM948 1726l-192 -301h-152l119 301h225z" />
<glyph unicode="&#xdb;" horiz-adv-x="1370" d="M1200 469q0 -221 -127 -350q-135 -139 -401 -139q-248 0 -377 122q-131 129 -131 387v861h182v-856q0 -174 90 -267q84 -88 240 -88q178 0 262 88q80 86 80 254v869h182v-881zM977 1425h-168l-127 187l-125 -187h-166l211 301h160z" />
<glyph unicode="&#xdc;" horiz-adv-x="1370" d="M1200 469q0 -221 -127 -350q-135 -139 -401 -139q-248 0 -377 122q-131 129 -131 387v861h182v-856q0 -174 90 -267q84 -88 240 -88q178 0 262 88q80 86 80 254v869h182v-881zM969 1554q0 -45 -31 -76.5t-76 -31.5t-75.5 31.5t-30.5 76.5t30.5 77t75.5 32t76 -32t31 -77z M610 1554q0 -45 -31.5 -76.5t-76.5 -31.5q-43 0 -75 31.5t-32 76.5t32 77t75 32q45 0 76.5 -32t31.5 -77z" />
<glyph unicode="&#xdd;" horiz-adv-x="1128" d="M1106 1350l-444 -811v-539h-183v543l-452 807h200l232 -418q113 -213 114 -217h5q43 92 108 215l227 420h193zM821 1747l-192 -301h-152l119 301h225z" />
<glyph unicode="&#xde;" horiz-adv-x="999" d="M162 1350h182v-226h117q215 0 340 -112.5t125 -313.5q0 -193 -123 -318.5t-375 -125.5h-84v-254h-182v1350zM735 698q0 121 -74.5 193t-216.5 72h-100v-547h111q141 0 210.5 75.5t69.5 206.5z" />
<glyph unicode="&#xdf;" horiz-adv-x="1179" d="M1112 309q0 -168 -107.5 -248.5t-271.5 -80.5t-297 77l66 138q104 -74 233 -74q190 0 191 170q0 57 -35 106t-86 86l-101.5 77t-85 98.5t-34.5 132.5q0 182 211 258q-4 113 -66.5 183.5t-169.5 70.5q-111 0 -181.5 -72t-70.5 -223v-1297h-180v1288q0 129 41 222.5 t108.5 140.5t138 67.5t148.5 20.5q166 0 289 -107.5t123 -326.5q0 -39 -2 -60q-205 -45 -205 -149q0 -41 36 -82t86 -79t100 -83t86 -110.5t36 -143.5z" />
<glyph unicode="&#xe0;" horiz-adv-x="964" d="M866 0h-151l-39 92q-121 -113 -293 -112q-127 0 -215 82.5t-88 218.5q0 145 102.5 228t292.5 89l189 6v37q0 203 -201 203q-135 0 -254 -84l-68 123q156 111 355 110q350 0 350 -336v-325q0 -283 20 -332zM664 225v234l-177 -6q-225 -8 -225 -158q0 -72 46 -118t132 -46 q130 0 224 94zM250 1389h225l119 -302h-152z" />
<glyph unicode="&#xe1;" horiz-adv-x="964" d="M866 0h-151l-39 92q-121 -113 -293 -112q-127 0 -215 82.5t-88 218.5q0 145 102.5 228t292.5 89l189 6v37q0 203 -201 203q-135 0 -254 -84l-68 123q156 111 355 110q350 0 350 -336v-325q0 -283 20 -332zM664 225v234l-177 -6q-225 -8 -225 -158q0 -72 46 -118t132 -46 q130 0 224 94zM745 1389l-192 -302h-152l119 302h225z" />
<glyph unicode="&#xe2;" horiz-adv-x="964" d="M866 0h-151l-39 92q-121 -113 -293 -112q-127 0 -215 82.5t-88 218.5q0 145 102.5 228t292.5 89l189 6v37q0 203 -201 203q-135 0 -254 -84l-68 123q156 111 355 110q350 0 350 -336v-325q0 -283 20 -332zM664 225v234l-177 -6q-225 -8 -225 -158q0 -72 46 -118t132 -46 q130 0 224 94zM780 1087h-168l-127 187l-125 -187h-165l211 302h159z" />
<glyph unicode="&#xe3;" horiz-adv-x="964" d="M866 0h-151l-39 92q-121 -113 -293 -112q-127 0 -215 82.5t-88 218.5q0 145 102.5 228t292.5 89l189 6v37q0 203 -201 203q-135 0 -254 -84l-68 123q156 111 355 110q350 0 350 -336v-325q0 -283 20 -332zM664 225v234l-177 -6q-225 -8 -225 -158q0 -72 46 -118t132 -46 q130 0 224 94zM774 1276q0 -68 -41 -111t-102 -43q-55 0 -117 31l-61 27q-53 25 -80 24q-47 0 -47 -51v-18h-111v47q0 68 41 110.5t104 42.5q49 0 115 -28l60 -27q57 -27 81 -27q45 0 46 52v20h112v-49z" />
<glyph unicode="&#xe4;" horiz-adv-x="964" d="M866 0h-151l-39 92q-121 -113 -293 -112q-127 0 -215 82.5t-88 218.5q0 145 102.5 228t292.5 89l189 6v37q0 203 -201 203q-135 0 -254 -84l-68 123q156 111 355 110q350 0 350 -336v-325q0 -283 20 -332zM664 225v234l-177 -6q-225 -8 -225 -158q0 -72 46 -118t132 -46 q130 0 224 94zM772 1247q0 -45 -30.5 -76.5t-75.5 -31.5t-76 31.5t-31 76.5t31 77t76 32t75.5 -32t30.5 -77zM414 1247q0 -45 -32 -76.5t-77 -31.5q-43 0 -74.5 31.5t-31.5 76.5t31.5 77t74.5 32q45 0 77 -32t32 -77z" />
<glyph unicode="&#xe5;" horiz-adv-x="964" />
<glyph unicode="&#xe6;" horiz-adv-x="1544" d="M1466 451h-622q0 -137 83 -227.5t224 -90.5q121 0 235 68l52 -121q-133 -100 -322 -100q-223 0 -350 165q-55 -51 -93 -79.5t-114 -57t-162 -28.5q-137 0 -227 81.5t-90 219.5q0 147 105.5 229t306.5 82h174v47q0 205 -205 205q-133 0 -252 -84l-66 121q154 113 353 112 q211 0 290 -133q119 133 279 133q188 0 294.5 -135t106.5 -364v-43zM1274 592q-2 102 -58.5 179t-154.5 77t-157.5 -75t-59.5 -181h430zM705 250q-39 86 -46 201h-135q-264 0 -264 -158q0 -72 47 -117t139 -45q140 0 259 119z" />
<glyph unicode="&#xe7;" horiz-adv-x="907" d="M862 80q-121 -82 -270 -98l-25 -74q139 -10 140 -125q0 -72 -63.5 -112t-141.5 -40q-84 0 -133 29l30 84q45 -25 95 -25q33 0 56 16.5t23 43.5q0 49 -90 53l-61 2l47 150q-186 25 -287.5 163t-101.5 328q0 217 131 367.5t358 150.5q145 0 258 -63v-162q-115 76 -252 76 q-143 0 -228 -100.5t-85 -256t82 -255t227 -99.5q123 0 240 70z" />
<glyph unicode="&#xe8;" horiz-adv-x="966" d="M889 446h-621q0 -135 82 -225t223 -90q115 0 236 72l51 -125q-137 -98 -321 -98q-223 0 -342 149.5t-119 368.5q0 213 113.5 354t295.5 141q188 0 295 -135t107 -364v-48zM696 588q0 102 -55 180t-156 78q-98 0 -158.5 -75t-60.5 -183h430zM256 1389h225l119 -302h-151z " />
<glyph unicode="&#xe9;" horiz-adv-x="966" d="M889 446h-621q0 -135 82 -225t223 -90q115 0 236 72l51 -125q-137 -98 -321 -98q-223 0 -342 149.5t-119 368.5q0 213 113.5 354t295.5 141q188 0 295 -135t107 -364v-48zM696 588q0 102 -55 180t-156 78q-98 0 -158.5 -75t-60.5 -183h430zM760 1389l-193 -302h-151 l119 302h225z" />
<glyph unicode="&#xea;" horiz-adv-x="966" d="M889 446h-621q0 -135 82 -225t223 -90q115 0 236 72l51 -125q-137 -98 -321 -98q-223 0 -342 149.5t-119 368.5q0 213 113.5 354t295.5 141q188 0 295 -135t107 -364v-48zM696 588q0 102 -55 180t-156 78q-98 0 -158.5 -75t-60.5 -183h430zM778 1087h-168l-127 187 l-125 -187h-165l210 302h160z" />
<glyph unicode="&#xeb;" horiz-adv-x="966" d="M889 446h-621q0 -135 82 -225t223 -90q115 0 236 72l51 -125q-137 -98 -321 -98q-223 0 -342 149.5t-119 368.5q0 213 113.5 354t295.5 141q188 0 295 -135t107 -364v-48zM696 588q0 102 -55 180t-156 78q-98 0 -158.5 -75t-60.5 -183h430zM770 1247q0 -45 -30.5 -76.5 t-76 -31.5t-76 31.5t-30.5 76.5t30.5 77t76 32t76 -32t30.5 -77zM412 1247q0 -45 -32 -76.5t-77 -31.5q-43 0 -74.5 31.5t-31.5 76.5t31.5 77t74.5 32q45 0 77 -32t32 -77z" />
<glyph unicode="&#xec;" horiz-adv-x="491" d="M336 0h-180v969h180v-969zM-14 1389h225l119 -302h-152z" />
<glyph unicode="&#xed;" horiz-adv-x="491" d="M336 0h-180v969h180v-969zM502 1389l-193 -302h-151l118 302h226z" />
<glyph unicode="&#xee;" horiz-adv-x="491" d="M336 0h-180v969h180v-969zM545 1087h-168l-127 187l-125 -187h-166l211 302h160z" />
<glyph unicode="&#xef;" horiz-adv-x="491" d="M336 0h-180v969h180v-969zM535 1247q0 -45 -31 -76.5t-76 -31.5t-75.5 31.5t-30.5 76.5t30.5 77t75.5 32t76 -32t31 -77zM176 1247q0 -45 -31.5 -76.5t-76.5 -31.5q-43 0 -75 31.5t-32 76.5t32 77t75 32q45 0 76.5 -32t31.5 -77z" />
<glyph unicode="&#xf0;" horiz-adv-x="1118" d="M1024 610q0 -313 -131 -471.5t-348 -158.5q-199 0 -326 126q-141 141 -141 383q0 221 124 362.5t314 141.5q242 0 330 -188h2q-23 260 -180 409l-285 -122l-49 118l211 90q-117 55 -287 72l47 141q256 -33 418 -139l244 103l47 -119l-183 -78q193 -211 193 -670zM545 846 q-133 0 -208 -94.5t-75 -258t77 -263t210 -99.5q135 0 207.5 100.5t72.5 264.5q0 150 -77.5 250t-206.5 100z" />
<glyph unicode="&#xf1;" horiz-adv-x="1058" d="M932 0h-182v588q0 106 -33 172.5t-127 66.5q-127 0 -283 -135v-692h-180v969h152l22 -111q182 135 344 135q119 0 203 -86t84 -258v-649zM817 1276q0 -68 -41 -111t-102 -43q-55 0 -117 31l-61 27q-53 25 -80 24q-47 0 -47 -51v-18h-111v47q0 68 41 110.5t104 42.5 q49 0 115 -28l60 -27q57 -27 81 -27q45 0 46 52v20h112v-49z" />
<glyph unicode="&#xf2;" horiz-adv-x="1067" d="M532 993q199 0 324 -131q133 -139 133 -376.5t-137 -379.5q-123 -127 -322 -126q-190 0 -313 118q-139 139 -139 385q0 238 137 381q124 129 317 129zM530 844q-129 0 -198.5 -96.5t-69.5 -260t73 -261t200 -97.5q125 0 196.5 98.5t71.5 259.5q0 164 -72 260.5t-201 96.5 zM281 1389h225l119 -302h-152z" />
<glyph unicode="&#xf3;" horiz-adv-x="1067" d="M532 993q199 0 324 -131q133 -139 133 -376.5t-137 -379.5q-123 -127 -322 -126q-190 0 -313 118q-139 139 -139 385q0 238 137 381q124 129 317 129zM530 844q-129 0 -198.5 -96.5t-69.5 -260t73 -261t200 -97.5q125 0 196.5 98.5t71.5 259.5q0 164 -72 260.5t-201 96.5 zM801 1389l-193 -302h-151l118 302h226z" />
<glyph unicode="&#xf4;" horiz-adv-x="1067" d="M532 993q199 0 324 -131q133 -139 133 -376.5t-137 -379.5q-123 -127 -322 -126q-190 0 -313 118q-139 139 -139 385q0 238 137 381q124 129 317 129zM530 844q-129 0 -198.5 -96.5t-69.5 -260t73 -261t200 -97.5q125 0 196.5 98.5t71.5 259.5q0 164 -72 260.5t-201 96.5 zM831 1087h-167l-127 187l-125 -187h-166l211 302h159z" />
<glyph unicode="&#xf5;" horiz-adv-x="1067" d="M532 993q199 0 324 -131q133 -139 133 -376.5t-137 -379.5q-123 -127 -322 -126q-190 0 -313 118q-139 139 -139 385q0 238 137 381q124 129 317 129zM530 844q-129 0 -198.5 -96.5t-69.5 -260t73 -261t200 -97.5q125 0 196.5 98.5t71.5 259.5q0 164 -72 260.5t-201 96.5 zM809 1276q0 -68 -41 -111t-102 -43q-55 0 -117 31l-62 27q-53 25 -79 24q-47 0 -48 -51v-18h-110v47q0 68 41 110.5t104 42.5q49 0 115 -28l59 -27q57 -27 82 -27q45 0 45 52v20h113v-49z" />
<glyph unicode="&#xf6;" horiz-adv-x="1067" d="M532 993q199 0 324 -131q133 -139 133 -376.5t-137 -379.5q-123 -127 -322 -126q-190 0 -313 118q-139 139 -139 385q0 238 137 381q124 129 317 129zM530 844q-129 0 -198.5 -96.5t-69.5 -260t73 -261t200 -97.5q125 0 196.5 98.5t71.5 259.5q0 164 -72 260.5t-201 96.5 zM821 1247q0 -45 -30.5 -76.5t-75.5 -31.5t-76 31.5t-31 76.5t31 77t76 32t75.5 -32t30.5 -77zM463 1247q0 -45 -32 -76.5t-77 -31.5q-43 0 -74.5 31.5t-31.5 76.5t31.5 77t74.5 32q45 0 77 -32t32 -77z" />
<glyph unicode="&#xf7;" horiz-adv-x="1259" d="M750 874q0 -51 -34 -85.5t-85 -34.5q-49 0 -83 34.5t-34 86t34 87t83 35.5q51 0 85 -35t34 -88zM1114 436h-969v162h969v-162zM750 160q0 -51 -34 -86t-85 -35q-49 0 -83 35t-34 86t34 86t83 35q51 0 85 -35t34 -86z" />
<glyph unicode="&#xf8;" horiz-adv-x="1067" d="M979 961l-96 -130q109 -131 108 -346q0 -238 -137 -379q-121 -127 -322 -126q-143 0 -245 67l-90 -121l-105 80l96 129q-109 137 -108 348q0 233 137 381q125 129 318 129q143 0 249 -71l90 112zM688 795q-61 49 -156 49q-127 0 -197.5 -97.5t-70.5 -259.5 q0 -117 41 -202zM807 487q0 115 -37 197l-383 -506q61 -49 150 -49q127 0 198.5 98t71.5 260z" />
<glyph unicode="&#xf9;" horiz-adv-x="1054" d="M928 0h-148l-39 98q-139 -119 -309 -118q-53 0 -102 16t-97.5 52t-77 109.5t-28.5 174.5v637h182v-623q0 -215 183 -215q137 0 235 113v725h180v-609q1 -299 21 -360zM266 1389h226l118 -302h-151z" />
<glyph unicode="&#xfa;" horiz-adv-x="1054" d="M928 0h-148l-39 98q-139 -119 -309 -118q-53 0 -102 16t-97.5 52t-77 109.5t-28.5 174.5v637h182v-623q0 -215 183 -215q137 0 235 113v725h180v-609q1 -299 21 -360zM784 1389l-192 -302h-152l119 302h225z" />
<glyph unicode="&#xfb;" horiz-adv-x="1054" d="M928 0h-148l-39 98q-139 -119 -309 -118q-53 0 -102 16t-97.5 52t-77 109.5t-28.5 174.5v637h182v-623q0 -215 183 -215q137 0 235 113v725h180v-609q1 -299 21 -360zM809 1087h-168l-127 187l-125 -187h-166l211 302h160z" />
<glyph unicode="&#xfc;" horiz-adv-x="1054" d="M928 0h-148l-39 98q-139 -119 -309 -118q-53 0 -102 16t-97.5 52t-77 109.5t-28.5 174.5v637h182v-623q0 -215 183 -215q137 0 235 113v725h180v-609q1 -299 21 -360zM803 1247q0 -45 -31 -76.5t-76 -31.5t-75.5 31.5t-30.5 76.5t30.5 77t75.5 32t76 -32t31 -77z M444 1247q0 -45 -31.5 -76.5t-76.5 -31.5q-43 0 -75 31.5t-32 76.5t32 77t75 32q45 0 76.5 -32t31.5 -77z" />
<glyph unicode="&#xfd;" horiz-adv-x="1007" d="M981 969l-371 -1043q-86 -244 -192.5 -327.5t-247.5 -83.5q-102 0 -195 39l45 139q66 -33 146 -33q193 0 289 336l-439 973h193l332 -758h6l254 758h180zM768 1389l-193 -302h-151l119 302h225z" />
<glyph unicode="&#xfe;" horiz-adv-x="1034" d="M127 1450h180v-475q82 18 156 18q231 0 362 -133t131 -362q0 -242 -143 -380t-350 -138q-80 0 -156 28v-493h-180v1935zM770 492q0 170 -88 257t-225 87q-74 0 -150 -23v-649q66 -33 148 -33q145 0 230 97.5t85 263.5z" />
<glyph unicode="&#xff;" horiz-adv-x="1007" d="M981 969l-371 -1043q-86 -244 -192.5 -327.5t-247.5 -83.5q-102 0 -195 39l45 139q66 -33 146 -33q193 0 289 336l-439 973h193l332 -758h6l254 758h180zM795 1247q0 -45 -31 -76.5t-76 -31.5t-75.5 31.5t-30.5 76.5t30.5 77t75.5 32t76 -32t31 -77zM436 1247 q0 -45 -31.5 -76.5t-76.5 -31.5q-43 0 -75 31.5t-32 76.5t32 77t75 32q45 0 76.5 -32t31.5 -77z" />
<glyph unicode="&#x152;" horiz-adv-x="1765" d="M1663 0h-537q-45 0 -187 -11.5t-181 -11.5q-281 0 -463 173q-209 193 -209 518q0 299 191.5 495.5t486.5 196.5q16 0 128 -5t155 -5h612l-62 -162h-448v-418h444v-160h-444v-448h514v-162zM967 158v1020q-123 20 -211 20q-219 0 -348 -143.5t-129 -380.5 q0 -242 131 -389.5t352 -147.5q58 1 205 21z" />
<glyph unicode="&#x153;" horiz-adv-x="1681" d="M1604 446h-621q0 -133 82 -223t223 -90q121 0 236 68l51 -121q-133 -100 -322 -100q-238 0 -364 186q-123 -188 -359 -189q-188 0 -313 121q-139 139 -139 385q0 238 137 381q125 129 317 129q231 0 355 -180q111 180 315 180q188 0 295 -135t107 -364v-48zM1413 588 q-2 102 -57.5 180t-155.5 78q-98 0 -157.5 -75t-59.5 -183h430zM530 844q-129 0 -198.5 -96.5t-69.5 -260t73 -261t200 -97.5q125 0 196.5 98.5t71.5 259.5q0 164 -72 260.5t-201 96.5z" />
<glyph unicode="&#x178;" horiz-adv-x="1128" d="M1106 1350l-444 -811v-539h-183v543l-452 807h200l232 -418q113 -213 114 -217h5q43 92 108 215l227 420h193zM854 1554q0 -45 -30.5 -76.5t-76 -31.5t-76 31.5t-30.5 76.5t30.5 77t76 32t76 -32t30.5 -77zM496 1554q0 -45 -32 -76.5t-77 -31.5q-43 0 -74.5 31.5 t-31.5 76.5t31.5 77t74.5 32q45 0 77 -32t32 -77z" />
<glyph unicode="&#x2c6;" horiz-adv-x="841" d="M717 1087h-168l-127 187l-125 -187h-166l211 302h160z" />
<glyph unicode="&#x2dc;" horiz-adv-x="808" d="M686 1276q0 -68 -41 -111t-102 -43q-55 0 -117 31l-61 27q-53 25 -80 24q-47 0 -47 -51v-18h-111v47q0 68 41 110.5t104 42.5q49 0 115 -28l59 -27q57 -27 82 -27q45 0 45 52v20h113v-49z" />
<glyph unicode="&#x2000;" horiz-adv-x="872" />
<glyph unicode="&#x2001;" horiz-adv-x="1746" />
<glyph unicode="&#x2002;" horiz-adv-x="872" />
<glyph unicode="&#x2003;" horiz-adv-x="1746" />
<glyph unicode="&#x2004;" horiz-adv-x="581" />
<glyph unicode="&#x2005;" horiz-adv-x="436" />
<glyph unicode="&#x2006;" horiz-adv-x="290" />
<glyph unicode="&#x2007;" horiz-adv-x="290" />
<glyph unicode="&#x2008;" horiz-adv-x="217" />
<glyph unicode="&#x2009;" horiz-adv-x="348" />
<glyph unicode="&#x200a;" horiz-adv-x="96" />
<glyph unicode="&#x2010;" horiz-adv-x="743" d="M643 430h-539v154h539v-154z" />
<glyph unicode="&#x2011;" horiz-adv-x="743" d="M643 430h-539v154h539v-154z" />
<glyph unicode="&#x2012;" horiz-adv-x="743" d="M643 430h-539v154h539v-154z" />
<glyph unicode="&#x2013;" horiz-adv-x="1024" d="M1024 438h-1024v146h1024v-146z" />
<glyph unicode="&#x2014;" horiz-adv-x="2048" d="M2048 438h-2048v146h2048v-146z" />
<glyph unicode="&#x2018;" horiz-adv-x="462" d="M258 897q-170 252 -25 576l113 -23q-31 -166 -13.5 -260t85.5 -203z" />
<glyph unicode="&#x2019;" horiz-adv-x="485" d="M344 1466q84 -291 -154 -555l-100 56q78 129 92.5 243.5t-18.5 219.5z" />
<glyph unicode="&#x201a;" horiz-adv-x="485" d="M344 238q84 -291 -154 -555l-100 55q78 129 92.5 243.5t-18.5 219.5z" />
<glyph unicode="&#x201c;" horiz-adv-x="806" d="M258 897q-170 252 -25 576l113 -23q-31 -166 -13.5 -260t85.5 -203zM602 897q-170 252 -24 576l112 -23q-31 -166 -13.5 -260t85.5 -203z" />
<glyph unicode="&#x201d;" horiz-adv-x="829" d="M344 1466q84 -291 -154 -555l-100 56q78 129 92.5 243.5t-18.5 219.5zM688 1466q84 -291 -153 -555l-101 56q78 129 92.5 243.5t-18.5 219.5z" />
<glyph unicode="&#x201e;" horiz-adv-x="829" d="M344 238q84 -291 -154 -555l-100 55q78 129 92.5 243.5t-18.5 219.5zM688 238q84 -291 -153 -555l-101 55q78 129 92.5 243.5t-18.5 219.5z" />
<glyph unicode="&#x2022;" horiz-adv-x="628" d="M522 651q0 -90 -59.5 -151.5t-149.5 -61.5q-88 0 -147.5 61.5t-59.5 151.5t59.5 152.5t147.5 62.5q90 0 149.5 -61.5t59.5 -153.5z" />
<glyph unicode="&#x2026;" horiz-adv-x="1757" d="M1532 100.5q0 -53.5 -35 -89.5t-86 -36t-86 36t-35 89.5t35 90t86 36.5t86 -36.5t35 -90zM1001 100.5q0 -53.5 -34.5 -89.5t-86 -36t-87 36t-35.5 89.5t35.5 90t87 36.5t86 -36.5t34.5 -90zM467 100.5q0 -53.5 -35 -89.5t-86 -36t-86 36t-35 89.5t35 90t86 36.5t86 -36.5 t35 -90z" />
<glyph unicode="&#x202f;" horiz-adv-x="348" />
<glyph unicode="&#x2039;" horiz-adv-x="718" d="M580 106l-144 -86l-340 474l340 475l144 -86l-283 -389z" />
<glyph unicode="&#x203a;" horiz-adv-x="718" d="M627 494l-340 -474l-144 86l283 388l-283 389l144 86z" />
<glyph unicode="&#x205f;" horiz-adv-x="436" />
<glyph unicode="&#x20ac;" horiz-adv-x="1208" d="M371 762q-4 -57 -4 -92q0 -59 6 -115h600l-55 -137h-515q94 -279 381 -279q154 0 299 88l52 -147q-164 -100 -377 -100q-221 0 -362.5 113.5t-192.5 324.5h-160v137h137q-4 70 -4 104q0 53 6 103h-139v137h162q55 217 205.5 339t373.5 122q209 0 326 -78v-176 q-145 100 -328 100q-143 0 -241.5 -82t-141.5 -225h631l-55 -137h-604z" />
<glyph unicode="&#x2122;" horiz-adv-x="1677" d="M1538 541h-145v467q0 70 4 112h-2q-14 -37 -58 -102l-163 -254h-82l-174 254q-43 66 -58 102h-2q4 -43 4 -112v-467h-145v809h141l213 -318q31 -45 59 -100h5q27 55 55 100l203 318h145v-809zM674 1350l-45 -131h-211v-678h-146v678h-225v131h627z" />
<glyph unicode="&#xe000;" horiz-adv-x="970" d="M0 970h970v-970h-970v970z" />
<glyph unicode="&#xfb01;" horiz-adv-x="1138" d="M662 1413l-37 -139q-53 27 -119 26q-125 0 -125 -155v-176h254l-57 -148h-197v-821h-182v821h-127v148h127v159q0 94 28.5 161t76.5 99.5t96.5 47t101.5 14.5q88 0 160 -37zM893 1393q49 0 85 -35t36 -84t-36 -85t-85 -36q-51 0 -86 35t-35 86q0 49 36 84t85 35zM983 0 h-180v969h180v-969z" />
<glyph unicode="&#xfb02;" horiz-adv-x="1153" d="M662 1413l-37 -139q-53 27 -119 26q-125 0 -125 -155v-176h254l-57 -148h-197v-821h-182v821h-127v148h127v159q0 94 28.5 161t76.5 99.5t96.5 47t101.5 14.5q88 0 160 -37zM1112 18q-72 -39 -149 -38q-94 0 -140.5 52t-46.5 138v1280h180v-1200q0 -61 16.5 -84t59.5 -23 q31 0 58 9z" />
<glyph unicode="&#xfb03;" horiz-adv-x="1785" d="M1540 1393q49 0 85 -35t36 -84t-36 -85t-85 -36q-51 0 -86 35t-35 86q0 49 36 84t85 35zM1630 0h-180v969h180v-969zM1309 1413l-37 -139q-53 27 -119 26q-125 0 -125 -155v-176h254l-57 -148h-197v-821h-182v821h-127v148h127v159q0 94 28.5 161t76.5 99.5t96.5 47 t101.5 14.5q88 0 160 -37zM662 1413l-37 -139q-53 27 -119 26q-125 0 -125 -155v-176h254l-57 -148h-197v-821h-182v821h-127v148h127v159q0 94 28.5 161t76.5 99.5t96.5 47t101.5 14.5q88 0 160 -37z" />
<glyph unicode="&#xfb04;" horiz-adv-x="1800" d="M1759 18q-72 -39 -150 -38q-94 0 -140 52t-46 138v1280h180v-1200q0 -61 16.5 -84t59.5 -23q31 0 57 9zM1309 1413l-37 -139q-53 27 -119 26q-125 0 -125 -155v-176h254l-57 -148h-197v-821h-182v821h-127v148h127v159q0 94 28.5 161t76.5 99.5t96.5 47t101.5 14.5 q88 0 160 -37zM662 1413l-37 -139q-53 27 -119 26q-125 0 -125 -155v-176h254l-57 -148h-197v-821h-182v821h-127v148h127v159q0 94 28.5 161t76.5 99.5t96.5 47t101.5 14.5q88 0 160 -37z" />
</font>
</defs>
</svg>
